<svg data-name="Layer 1" viewBox="0 0 512 512" xmlns="http://www.w3.org/2000/svg"><path d="M231.85 136a95.89 95.89 0 1095.88 95.88A96 96 0 00231.85 136zm-19.29 110.2a32.68 32.68 0 0110.87 2v17.51c0 7.79-10.76 8.27-10.87 8.27s-10.87-.48-10.87-8.27v-17.53a32.77 32.77 0 0110.87-1.98zm0 38.42c8.95 0 21.54-5.87 21.54-18.93v-11.32a33.1 33.1 0 11-43.07 0v11.32c-.03 13.06 12.59 18.93 21.53 18.93zm21.91 32.32a43.41 43.41 0 00-2.87-76.86 5.07 5.07 0 00-1-.57 42.75 42.75 0 00-36 0 5 5 0 00-1 .57 43.68 43.68 0 00-24.72 39.21 43.16 43.16 0 001.71 11.71 85.18 85.18 0 1163.88 26z"/><path d="M402 363.17l-61-61a129.17 129.17 0 0020.73-70.33c0-71.63-58.28-129.91-129.91-129.91s-129.89 58.28-129.89 129.91A129.84 129.84 0 00302.17 341l61 61A27.47 27.47 0 10402 363.17zm-7.53 31.31a17.2 17.2 0 01-23.78 0l-64.1-64.09a5.3 5.3 0 00-6.81-.61 119.35 119.35 0 1130-30 5.32 5.32 0 00.6 6.81l64.11 64.1a16.8 16.8 0 010 23.76z"/><path d="M256.34 231.84a24.32 24.32 0 1024.31-24.31 24.33 24.33 0 00-24.31 24.31zm38 0a13.65 13.65 0 11-13.65-13.65 13.67 13.67 0 0113.61 13.65zm-73.21-67.42a24.31 24.31 0 1024.32 24.31 24.33 24.33 0 00-24.32-24.31zm0 38a13.65 13.65 0 1113.65-13.65 13.66 13.66 0 01-13.65 13.61z"/></svg>